<svg width="224" height="21" viewBox="0 0 224 21" fill="none" xmlns="http://www.w3.org/2000/svg">
<g clip-path="url(#clip0)">
<path fill-rule="evenodd" clip-rule="evenodd" d="M216.234 18.0621C216.153 18.2068 216.055 18.3415 215.944 18.4635L215.84 18.5749C215.484 18.9574 215.04 19.2462 214.547 19.4165C214.258 19.5184 213.964 19.6049 213.666 19.6754C213.221 19.7896 212.764 19.8475 212.306 19.8476C212.145 19.8502 211.986 19.8131 211.842 19.7395C211.8 19.7067 211.766 19.6642 211.743 19.6156C211.72 19.567 211.709 19.5137 211.71 19.4599V9.33987C211.708 9.2337 211.665 9.13251 211.59 9.0584C211.514 8.98429 211.413 8.94328 211.308 8.94432H204.296C203.997 8.94432 203.846 8.7255 204.188 7.97971C204.267 7.80815 204.435 7.28312 204.527 7.09149C204.572 6.99703 204.623 6.90518 204.678 6.81635C204.915 6.43374 205.2 6.08362 205.525 5.7747C205.895 5.57551 206.315 5.49295 206.731 5.53776H223.65C223.697 5.53555 223.744 5.54295 223.788 5.55953C223.832 5.57611 223.873 5.60151 223.907 5.63422C223.938 5.66296 223.963 5.69804 223.981 5.73718C223.998 5.77632 224.007 5.81866 224.006 5.86145C223.98 6.14294 223.93 6.42166 223.857 6.69464C223.723 7.27634 223.44 7.81227 223.036 8.24837C222.85 8.45893 222.624 8.62825 222.37 8.74557C222.017 8.88125 221.641 8.94718 221.264 8.93979H216.986C216.873 8.93812 216.764 8.9799 216.68 9.05663C216.597 9.13336 216.546 9.23927 216.537 9.35282V17.1215C216.52 17.4565 216.415 17.7811 216.234 18.0621ZM187.668 12.0673C187.435 11.8518 187.243 11.5954 187.101 11.3105C187.004 11.0032 186.965 10.68 186.989 10.3582C186.989 10.3582 186.989 9.7432 186.989 9.41691V9.00906C186.944 8.40041 187.096 7.79356 187.422 7.27928C187.748 6.765 188.23 6.37093 188.796 6.15602C189.414 5.89699 190.067 5.73183 190.732 5.66594C191.513 5.57772 192.298 5.53449 193.083 5.53646H203.061C203.439 5.53646 203.456 5.77017 203.456 5.85563C203.426 6.14943 203.363 6.43881 203.267 6.71795L202.927 7.64242C202.744 8.06504 202.433 8.41842 202.038 8.65203C201.644 8.88563 201.187 8.98749 200.732 8.94302H193.148C193.073 8.94285 192.998 8.94652 192.924 8.95403C192.699 8.97176 192.488 9.07361 192.334 9.2396C192.18 9.40559 192.092 9.62375 192.089 9.85131C192.089 10.0709 192.169 10.283 192.313 10.4479C192.456 10.6127 192.655 10.7189 192.871 10.7466C192.963 10.7593 193.056 10.7658 193.148 10.7661H202.669C203.098 10.7661 203.224 10.924 203.224 11.0593C203.156 11.4278 203.031 11.7832 202.854 12.1126C202.745 12.3511 202.622 12.5827 202.484 12.806C202.37 12.9822 202.242 13.1481 202.099 13.3019C201.867 13.5624 201.593 13.7813 201.289 13.9493C200.925 14.1087 200.53 14.186 200.133 14.1759H193.763C191.998 14.1759 191.625 14.5876 191.625 15.312V16.9305C191.622 17.4375 191.437 17.9262 191.105 18.3062C190.767 18.6675 190.381 18.9801 189.959 19.2352C189.594 19.4635 189.198 19.6379 188.784 19.7531C188.337 19.8512 187.879 19.8861 187.423 19.8567C187.313 19.8635 187.205 19.8301 187.118 19.7628C187.076 19.73 187.043 19.688 187.021 19.64C186.999 19.592 186.988 19.5394 186.989 19.4864V15.525C186.989 15.1133 186.989 14.3992 186.989 14.3992C186.985 14.1429 187.019 13.8873 187.089 13.6411C187.237 13.3968 187.434 13.1865 187.667 13.0235C187.759 12.963 187.843 12.8907 187.917 12.8086C187.957 12.7399 187.978 12.6617 187.978 12.582C187.978 12.5023 187.957 12.4241 187.917 12.3554C187.846 12.2478 187.762 12.1503 187.665 12.0654L187.668 12.0673ZM168.139 5.86469C168.904 5.64615 169.695 5.53719 170.49 5.541H178.86C179.655 5.53727 180.447 5.64623 181.212 5.86469C181.921 6.06189 182.588 6.39125 183.178 6.83577C183.745 7.27301 184.205 7.83412 184.526 8.4769C184.879 9.20926 185.052 10.0162 185.032 10.8302V14.5365C185.052 15.348 184.886 16.1532 184.548 16.8897C184.238 17.5371 183.783 18.1027 183.219 18.5419C182.631 18.9927 181.964 19.326 181.252 19.5239C180.472 19.7439 179.666 19.8528 178.857 19.8476H170.488C169.678 19.8528 168.872 19.7439 168.092 19.5239C167.381 19.3261 166.713 18.9928 166.126 18.5419C165.561 18.1028 165.106 17.5371 164.796 16.8897C164.458 16.1532 164.292 15.3479 164.313 14.5365V10.8276C164.292 10.0136 164.465 9.20656 164.818 8.47431C165.139 7.83093 165.601 7.2697 166.169 6.83318C166.759 6.38889 167.426 6.05975 168.136 5.86275L168.139 5.86469ZM169.275 13.8541C169.262 14.2903 169.332 14.725 169.481 15.1347C169.607 15.4604 169.821 15.7439 170.099 15.9529C170.401 16.1707 170.745 16.3216 171.108 16.3958C171.563 16.4919 172.027 16.5373 172.491 16.5311H177.217C177.681 16.5372 178.145 16.4918 178.599 16.3958C178.963 16.3215 179.307 16.1706 179.609 15.9529C179.887 15.7441 180.101 15.4605 180.226 15.1347C180.375 14.725 180.445 14.2903 180.432 13.8541V11.6815C180.469 11.3067 180.421 10.9284 180.292 10.575C180.163 10.2216 179.956 9.90229 179.687 9.64091C178.954 9.16432 178.085 8.94747 177.217 9.02459H172.491C171.622 8.94738 170.753 9.16423 170.02 9.64091C169.751 9.90229 169.544 10.2216 169.415 10.575C169.286 10.9284 169.238 11.3067 169.275 11.6815V13.8541ZM156.295 14.5196C156.03 14.4288 155.751 14.385 155.471 14.3902H148.568C147.849 14.3558 147.138 14.2167 146.457 13.9771C145.938 13.7726 145.469 13.4577 145.081 13.0539C144.694 12.6036 144.406 12.075 144.237 11.5034C144.048 10.9436 143.949 10.3567 143.944 9.76521C143.936 9.1627 144.046 8.56455 144.269 8.0056C144.476 7.49441 144.795 7.03679 145.201 6.6668C145.626 6.28785 146.123 6.00134 146.663 5.8252C147.359 5.62262 148.082 5.52446 148.807 5.53387H161.317C161.865 5.53387 161.868 5.87246 161.868 5.98705C161.825 6.3999 161.712 6.8022 161.534 7.1763C161.337 7.53056 161.089 7.85291 160.797 8.13249C160.539 8.38014 160.243 8.58353 159.92 8.73457C159.576 8.8741 159.208 8.94405 158.837 8.94044H150.3C150.21 8.93981 150.119 8.94391 150.029 8.95273C149.85 8.97143 149.684 9.05642 149.562 9.19136C149.441 9.32629 149.374 9.50163 149.373 9.68364V9.99891C149.374 10.1786 149.439 10.352 149.557 10.4863C149.675 10.6207 149.838 10.7069 150.015 10.7285C150.11 10.7396 150.206 10.7452 150.302 10.7454H157.733C158.349 10.7401 158.963 10.8312 159.552 11.0153C160.156 11.2765 160.697 11.6652 161.139 12.1554C161.521 12.586 161.817 13.0864 162.011 13.6295C162.263 14.2673 162.384 14.95 162.368 15.6364C162.383 16.2666 162.273 16.8934 162.042 17.4795C161.841 17.9754 161.53 18.4183 161.133 18.7743C160.73 19.1457 160.254 19.4266 159.736 19.5984C159.155 19.7691 158.553 19.8526 157.948 19.8463H145.086C144.745 19.8463 144.516 19.7894 144.516 19.4702C144.53 19.1464 144.577 18.8248 144.657 18.5108C144.739 18.0904 144.921 17.6965 145.188 17.3628C145.454 17.029 145.797 16.7654 146.187 16.5945C146.532 16.4496 146.903 16.3763 147.278 16.3789H155.264C155.612 16.3892 155.961 16.358 156.302 16.2857C156.435 16.2537 156.555 16.1777 156.64 16.0697C156.726 15.9617 156.774 15.8279 156.776 15.6895V15.101C156.764 14.9665 156.711 14.839 156.626 14.7356C156.54 14.6322 156.424 14.5579 156.295 14.5229V14.5196Z" fill="#595959"/>
<path fill-rule="evenodd" clip-rule="evenodd" d="M141.516 19.7344C141.431 19.8052 141.323 19.8433 141.212 19.8418C140.576 19.8405 139.941 19.7728 139.318 19.6398C138.9 19.5131 138.502 19.3267 138.135 19.0863C137.792 18.8645 137.497 18.5752 137.267 18.2356C137.05 17.8469 136.938 17.4072 136.942 16.9609V15.8966C136.976 15.5548 136.943 15.2097 136.844 14.8809C136.766 14.686 136.648 14.5096 136.498 14.363C136.273 14.1814 136.007 14.0589 135.724 14.0063C135.303 13.9506 134.879 13.9314 134.455 13.9486H128.428C128.29 13.9451 128.155 13.9921 128.049 14.0809C127.943 14.1697 127.872 14.2943 127.85 14.4316V16.9629C127.867 17.3198 127.797 17.6756 127.646 17.9987C127.466 18.4064 127.195 18.7667 126.855 19.0514C126.507 19.3172 126.113 19.516 125.694 19.6379C125.234 19.782 124.754 19.8536 124.273 19.8502C123.963 19.8639 123.653 19.8282 123.355 19.7447C123.308 19.7172 123.271 19.6759 123.248 19.6264C123.225 19.5769 123.217 19.5215 123.226 19.4676L123.22 5.9262C123.218 5.87311 123.229 5.82041 123.252 5.7723C123.274 5.72419 123.307 5.68201 123.348 5.64911C123.649 5.57667 123.957 5.54081 124.266 5.5423C124.732 5.54058 125.196 5.60486 125.644 5.73328C126.061 5.84906 126.457 6.03203 126.816 6.27514C127.119 6.49984 127.367 6.79093 127.542 7.12646C127.744 7.45563 127.849 7.83554 127.846 8.22249V10.2106C127.869 10.3646 127.947 10.5049 128.065 10.6049C128.183 10.7049 128.334 10.7577 128.488 10.7531H134.171C134.582 10.7622 134.992 10.7299 135.397 10.6567C135.641 10.6175 135.871 10.5106 136.059 10.3479C136.209 10.1806 136.304 9.97007 136.329 9.74579C136.369 9.45321 136.387 9.15804 136.383 8.86275V8.2186C136.385 7.85559 136.49 7.50071 136.686 7.19637C136.898 6.8602 137.174 6.57045 137.499 6.34441C137.86 6.09296 138.254 5.89541 138.671 5.75788C139.369 5.60908 140.081 5.53401 140.795 5.53388C140.905 5.53204 141.013 5.56989 141.099 5.6407C141.192 5.73275 141.247 5.85703 141.252 5.98835L141.263 9.62214C141.264 10.0271 141.199 10.4295 141.071 10.8133C140.995 11.0963 140.857 11.3584 140.666 11.5798C140.573 11.675 140.44 11.8025 140.326 11.91C140.261 11.9705 140.217 12.0508 140.202 12.1387C140.187 12.2265 140.201 12.317 140.241 12.3962L140.269 12.4506C140.309 12.5301 140.372 12.5964 140.448 12.6416C140.654 12.7609 140.847 12.9008 141.026 13.0591C141.271 13.2931 141.434 13.6013 141.49 13.937C141.6 14.4474 141.653 14.9685 141.647 15.4907V19.4592C141.648 19.5122 141.637 19.5648 141.614 19.6126C141.591 19.6605 141.558 19.7022 141.516 19.7344ZM119.598 19.1109C119.086 19.4473 118.507 19.6665 117.902 19.7531C117.266 19.8179 116.397 19.8457 115.698 19.8457H104.688C103.419 19.8457 103.211 18.9892 103.211 18.2564V6.81182C103.185 6.52928 103.239 6.24491 103.367 5.99223C103.476 5.84134 103.621 5.72067 103.788 5.64144C103.956 5.56221 104.14 5.52699 104.325 5.53906H115.267C116.051 5.53528 116.835 5.57634 117.615 5.66206C118.205 5.72795 118.776 5.91712 119.29 6.21752C119.734 6.45559 120.11 6.80549 120.381 7.23328C120.679 7.91531 120.831 8.65339 120.825 9.39879V9.85196C120.814 10.1615 120.765 10.4684 120.68 10.7661C120.607 11.0615 120.492 11.3449 120.34 11.6077C120.162 11.8755 119.927 12.1001 119.652 12.2654C119.357 12.4499 119.381 12.3949 119.724 12.5723C120.049 12.7361 120.336 12.9668 120.567 13.2495C120.788 13.5285 120.952 13.8494 121.049 14.1934C121.179 14.557 121.256 14.9374 121.278 15.323V15.7315C121.287 16.4698 121.113 17.1986 120.772 17.8517C120.483 18.3578 120.081 18.7889 119.598 19.1109ZM116.062 9.68494C116.062 9.07704 115.755 8.71774 114.664 8.71774H108.245C108.153 8.71739 108.065 8.75394 107.999 8.81936C107.934 8.88478 107.897 8.97373 107.896 9.06668V10.6392C107.897 10.7321 107.934 10.8211 107.999 10.8865C108.065 10.9519 108.153 10.9885 108.245 10.9881H114.664C115.068 11.0401 115.478 10.9608 115.835 10.7615C115.943 10.6402 116.019 10.4943 116.059 10.3365C116.098 10.1786 116.099 10.0135 116.062 9.8552V9.68494ZM116.515 15.077C116.515 14.2568 116.13 13.9409 114.89 13.9409H108.248C108.203 13.9407 108.158 13.9496 108.115 13.9671C108.073 13.9846 108.035 14.0103 108.002 14.0427C107.97 14.0752 107.944 14.1138 107.926 14.1563C107.909 14.1988 107.899 14.2444 107.899 14.2905V16.1031C107.899 16.1493 107.909 16.1949 107.926 16.2375C107.944 16.28 107.97 16.3186 108.002 16.3511C108.035 16.3836 108.073 16.4093 108.116 16.4267C108.158 16.4442 108.203 16.453 108.249 16.4527L114.888 16.4391C116.128 16.4391 116.513 16.1083 116.513 15.3004V15.077H116.515ZM95.2295 19.8457H87.0449C86.2665 19.8491 85.4921 19.7352 84.7471 19.5078C84.0398 19.2993 83.378 18.9577 82.7966 18.5011C82.2388 18.0586 81.7841 17.4979 81.4648 16.8587C81.0955 16.1608 80.8974 15.3838 80.8871 14.5928V10.9305C80.8975 10.1369 81.1033 9.35824 81.4859 8.66465C81.8174 8.0274 82.2824 7.47051 82.8485 7.03259C83.4318 6.57232 84.0922 6.22147 84.7984 5.99676C85.5318 5.74311 86.2983 5.60064 87.0731 5.57402L99.7814 5.54294C99.8243 5.54263 99.8668 5.55144 99.9061 5.56879C99.9454 5.58614 99.9807 5.61165 100.01 5.64365C100.038 5.67565 100.06 5.71343 100.074 5.75453C100.087 5.79563 100.092 5.83912 100.088 5.88217C99.9937 6.39765 99.8508 6.9028 99.6607 7.39059C99.5492 7.70882 99.3826 8.00453 99.1685 8.26392C98.9157 8.51594 98.6105 8.70818 98.2751 8.82675C97.9397 8.94531 97.5823 8.98724 97.2288 8.9495H88.9492C87.7188 8.9495 86.8382 9.10811 86.3074 9.54639C86.0337 9.74413 85.8198 10.0147 85.6897 10.328C85.5596 10.6412 85.5183 10.9847 85.5706 11.3202V14.139C85.5668 14.4407 85.6271 14.7397 85.7475 15.016C85.8678 15.2922 86.0454 15.5393 86.2682 15.7406C86.3074 15.7749 86.3478 15.8054 86.3915 15.841C87.0978 16.2854 87.9247 16.4946 88.7553 16.4391H94.0755C94.5512 16.4836 95.0262 16.3471 95.4073 16.0565C95.5544 15.9051 95.6686 15.7244 95.7426 15.526C95.8167 15.3276 95.8489 15.1159 95.8373 14.9042V14.5986C95.8435 14.5373 95.8355 14.4754 95.8139 14.4178C95.7922 14.3602 95.7576 14.3084 95.7127 14.2667C95.6678 14.2249 95.6139 14.1942 95.5552 14.1771C95.4965 14.16 95.4347 14.1569 95.3746 14.1681H90.8176C90.4763 14.17 90.138 14.104 89.8221 13.9739C89.492 13.7957 89.2026 13.5498 88.9725 13.252C88.7423 12.9541 88.5766 12.611 88.4858 12.2447C88.3965 11.8797 88.3322 11.509 88.2932 11.1351C88.2869 11.0873 88.291 11.0386 88.3054 10.9926C88.3197 10.9466 88.3439 10.9043 88.3762 10.8687C88.4085 10.8331 88.4482 10.8052 88.4924 10.7868C88.5367 10.7683 88.5843 10.76 88.6321 10.7622H98.6999C99.174 10.7633 99.6335 10.9278 100.002 11.2283C100.373 11.667 100.569 12.2295 100.551 12.806V16.2126C100.576 16.8509 100.415 17.4826 100.088 18.0298C99.8013 18.424 98.8559 19.8457 95.2295 19.8457ZM66.6147 20.7164H56.8793C56.8793 20.7164 54.2215 20.8058 52.8922 19.9842C51.7132 19.2553 49.9963 18.2758 50.0746 14.3785C50.0701 11.9722 50.0746 10.9881 50.0746 10.5337C50.0746 10.0792 50.0746 8.34031 53.4121 8.34031H65.2103C65.4047 8.33597 65.5966 8.38426 65.7662 8.48015C66.1371 8.7035 66.5363 9.27061 65.7815 10.6962C64.6224 12.8889 63.3047 12.7348 62.3156 12.7348H56.7503C56.6391 12.7215 56.5263 12.7335 56.4202 12.77C56.3142 12.8064 56.2176 12.8664 56.1376 12.9454C56.0575 13.0245 55.9961 13.1206 55.9577 13.2268C55.9193 13.333 55.9051 13.4464 55.9159 13.5589C55.9159 14.7242 56.0225 15.5056 56.6476 15.9109C57.1976 16.186 57.806 16.3213 58.4197 16.3051H66.7636C67.6461 16.3051 69.3752 16.1601 69.9509 14.8899C70.0556 14.6449 70.1069 14.3799 70.1011 14.1131C70.1011 12.7464 70.1011 9.27643 70.1011 8.34355C70.1011 7.49158 70.2391 5.04834 66.2071 5.04834H54.3466C53.8098 5.07733 53.2758 4.95246 52.8064 4.68816C52.3369 4.42386 51.9513 4.03093 51.6939 3.55481C51.1375 2.31571 50.3134 0.647389 51.5649 0.647389L68.0055 0.664869C68.0055 0.664869 71.6916 0.729607 73.9399 3.09193C75.1579 4.24349 75.8777 5.8323 75.9437 7.51489V14.1085C75.9437 19.1893 73.8571 20.7164 66.6147 20.7164ZM0 0H34.659V20.9987H0V0Z" fill="#00A9E1"/>
</g>
<defs>
<clipPath id="clip0">
<rect width="224" height="21" fill="white"/>
</clipPath>
</defs>
</svg>
